# xmcd CD database file
#
# Track frame offsets:
#	150
#	14437
#	33220
#
# Disc length: 848 seconds
#
# Revision: 1
# Processed by: cddbd v1.5.2PL0 Copyright (c) Steve Scherf et al.
# Submitted via: CDex 1.70beta2
#
DISCID=18034e03
DTITLE=Butthole Surfers - Jingle of a Dog's Collar
DYEAR=1996
DGENRE=Rock and Roll
TTITLE0=Jingle of a Dog's Collar
TTITLE1=Pepper (mountain mix)
TTITLE2=Pepper (hallucination mix)
EXTD=YEAR: 1996
EXTT0=
EXTT1=
EXTT2=
PLAYORDER=
